<svg id="Capa_1" data-name="Capa 1" xmlns="http://www.w3.org/2000/svg" viewBox="0 0 670 130"><defs><style>.cls-1{fill:#025391;}.cls-2{fill:#63a70a;}</style></defs><title>Logo-nuevo-18-10-17</title><path class="cls-1" d="M151.27,93.45V22H162.5q9.77,0,14.29,1.26A19.15,19.15,0,0,1,187,29.6a16.59,16.59,0,0,1,3.79,10.88,15.89,15.89,0,0,1-1.72,7.4,18.83,18.83,0,0,1-5.61,6.24Q190,57.17,193,61.76a19.32,19.32,0,0,1,3,10.85,20.21,20.21,0,0,1-3.11,11,19.86,19.86,0,0,1-8,7.4Q180,93.45,171.3,93.45ZM164.86,35V50h3q5,0,7.38-2.09a7.12,7.12,0,0,0,2.41-5.68A6.65,6.65,0,0,0,175.34,37q-2.29-2-7-2Zm0,27.19v18.3h3.41q8.47,0,11.42-2.14a7.2,7.2,0,0,0,2.94-6.21,8.7,8.7,0,0,0-3.46-7.28q-3.46-2.67-11.49-2.67Z"/><path class="cls-1" d="M242,40.62h13.25V93.45H242V87.86a26,26,0,0,1-7.78,5.32,21.79,21.79,0,0,1-8.46,1.63q-10.23,0-17.7-7.94t-7.47-19.74q0-12.24,7.23-20.05a23,23,0,0,1,17.55-7.82,22.33,22.33,0,0,1,8.93,1.8A24.42,24.42,0,0,1,242,46.44ZM228.08,51.49a13.39,13.39,0,0,0-10.21,4.35A15.66,15.66,0,0,0,213.8,67a15.83,15.83,0,0,0,4.14,11.26,13.42,13.42,0,0,0,10.19,4.42,13.66,13.66,0,0,0,10.36-4.35q4.11-4.35,4.11-11.39a15.43,15.43,0,0,0-4.11-11.17A13.83,13.83,0,0,0,228.08,51.49Z"/><path class="cls-1" d="M264.19,40.62h13.25V46a31.83,31.83,0,0,1,8.17-5.29,19.76,19.76,0,0,1,7.49-1.49,18.15,18.15,0,0,1,13.33,5.49q4.6,4.66,4.6,13.79V93.45H297.94V70.31q0-9.46-.85-12.56a8.58,8.58,0,0,0-3-4.73,8.26,8.26,0,0,0-5.2-1.63,9.76,9.76,0,0,0-6.9,2.69,14.36,14.36,0,0,0-4,7.45q-.58,2.47-.58,10.72V93.45H264.19Z"/><path class="cls-1" d="M371.1,51.3l-11,6.07a18.77,18.77,0,0,0-6.15-4.52,18.5,18.5,0,0,0-7.12-1.26q-7.43,0-12,4.44a15.11,15.11,0,0,0-4.6,11.37,14.62,14.62,0,0,0,4.42,11q4.42,4.27,11.62,4.27,8.9,0,13.86-6.07l10.45,7.16q-8.5,11.05-24,11.05-13.94,0-21.83-8.25a27.45,27.45,0,0,1,6.65-43.6,32,32,0,0,1,15.37-3.69,31.15,31.15,0,0,1,14.13,3.13A26.82,26.82,0,0,1,371.1,51.3Z"/><path class="cls-1" d="M417.56,40.62h13.25V93.45H417.56V87.86a26,26,0,0,1-7.78,5.32,21.79,21.79,0,0,1-8.46,1.63q-10.23,0-17.7-7.94t-7.47-19.74q0-12.24,7.23-20.05a23,23,0,0,1,17.55-7.82,22.33,22.33,0,0,1,8.93,1.8,24.42,24.42,0,0,1,7.71,5.39ZM403.63,51.49a13.39,13.39,0,0,0-10.21,4.35A15.66,15.66,0,0,0,389.35,67a15.83,15.83,0,0,0,4.14,11.26,13.42,13.42,0,0,0,10.19,4.42A13.66,13.66,0,0,0,414,78.32q4.11-4.35,4.11-11.39A15.43,15.43,0,0,0,414,55.77,13.83,13.83,0,0,0,403.63,51.49Z"/><path class="cls-1" d="M439.65,40.62H452.9v6.07a22.61,22.61,0,0,1,7.56-5.58,22.09,22.09,0,0,1,9.06-1.85,16.86,16.86,0,0,1,8.94,2.43,17.57,17.57,0,0,1,6.41,7.09,21.41,21.41,0,0,1,7.75-7.09,21.14,21.14,0,0,1,10-2.43,18.58,18.58,0,0,1,9.91,2.62,15.14,15.14,0,0,1,6.15,6.85q1.88,4.22,1.87,13.74v31H507.24V66.64q0-9-2.23-12.16a7.66,7.66,0,0,0-6.7-3.18,10.16,10.16,0,0,0-6.09,1.94,11.47,11.47,0,0,0-4,5.37q-1.31,3.42-1.31,11V93.45H473.54V67.86q0-7.09-1-10.27a9.31,9.31,0,0,0-3.14-4.73,8.26,8.26,0,0,0-5.06-1.55,10,10,0,0,0-6,2,11.76,11.76,0,0,0-4,5.51q-1.33,3.55-1.34,11.17v23.5H439.65Z"/><path class="cls-1" d="M533.91,18.87a8.11,8.11,0,0,1,6,2.52,8.39,8.39,0,0,1,2.49,6.12,8.28,8.28,0,0,1-2.47,6,8,8,0,0,1-5.9,2.5,8.12,8.12,0,0,1-6-2.55,8.52,8.52,0,0,1-2.49-6.19,8.44,8.44,0,0,1,8.43-8.45Zm-6.63,21.75h13.26V93.45H527.28Z"/><path class="cls-1" d="M587.14,40.62h13.21V85.87q0,13.4-5.39,19.71-7.23,8.55-21.8,8.55a38.2,38.2,0,0,1-13.06-1.94,23.49,23.49,0,0,1-8.93-5.71,23.25,23.25,0,0,1-5.39-9.15h14.61a12.1,12.1,0,0,0,5,3.37,20.7,20.7,0,0,0,7.23,1.14,19.09,19.09,0,0,0,8.6-1.65,10,10,0,0,0,4.59-4.27q1.33-2.62,1.34-9a21.94,21.94,0,0,1-7.33,5,23.3,23.3,0,0,1-8.69,1.53,23.89,23.89,0,0,1-18-7.67q-7.34-7.67-7.33-19.42,0-12.58,7.77-20.2a23.18,23.18,0,0,1,16.8-6.89A22.34,22.34,0,0,1,579,40.93a27.3,27.3,0,0,1,8.13,5.51Zm-13.74,11a13.8,13.8,0,0,0-10.34,4.2A14.55,14.55,0,0,0,559,66.4a14.75,14.75,0,0,0,4.18,10.83,14.13,14.13,0,0,0,10.49,4.22,13.58,13.58,0,0,0,10.17-4.13,14.89,14.89,0,0,0,4-10.83,14.71,14.71,0,0,0-4-10.73A13.88,13.88,0,0,0,573.4,51.64Z"/><path class="cls-1" d="M648.26,40.62h13.26V93.45H648.26V87.86a26,26,0,0,1-7.78,5.32A21.79,21.79,0,0,1,632,94.81q-10.24,0-17.7-7.94t-7.47-19.74q0-12.24,7.22-20.05a23,23,0,0,1,17.56-7.82,22.31,22.31,0,0,1,8.92,1.8,24.33,24.33,0,0,1,7.71,5.39ZM634.33,51.49a13.4,13.4,0,0,0-10.21,4.35A15.67,15.67,0,0,0,620.05,67a15.83,15.83,0,0,0,4.14,11.26,13.4,13.4,0,0,0,10.18,4.42,13.65,13.65,0,0,0,10.36-4.35q4.11-4.35,4.11-11.39a15.43,15.43,0,0,0-4.11-11.17A13.82,13.82,0,0,0,634.33,51.49Z"/><path class="cls-1" d="M150.93,124.53V105.2h3a15.78,15.78,0,0,1,3.87.34,5.18,5.18,0,0,1,2.76,1.71,4.49,4.49,0,0,1,1,2.94,4.29,4.29,0,0,1-.47,2,5.09,5.09,0,0,1-1.52,1.69,6,6,0,0,1,2.58,2.07,5.24,5.24,0,0,1,.81,2.94,5.47,5.47,0,0,1-.84,3,5.38,5.38,0,0,1-2.17,2,8.35,8.35,0,0,1-3.67.66Zm3.68-15.82v4.07h.81a3,3,0,0,0,2-.57,1.93,1.93,0,0,0,.65-1.54,1.8,1.8,0,0,0-.62-1.44,2.83,2.83,0,0,0-1.89-.53Zm0,7.36v5h.92a5.7,5.7,0,0,0,3.09-.58,2,2,0,0,0,.8-1.68,2.35,2.35,0,0,0-.94-2,5.16,5.16,0,0,0-3.11-.72Z"/><path class="cls-1" d="M176.15,110.24h3.59v14.29h-3.59V123a7,7,0,0,1-2.11,1.44,5.9,5.9,0,0,1-2.29.44,6.36,6.36,0,0,1-4.79-2.15,7.49,7.49,0,0,1-2-5.34,7.68,7.68,0,0,1,2-5.43,6.23,6.23,0,0,1,4.75-2.12,6,6,0,0,1,2.41.49,6.59,6.59,0,0,1,2.09,1.46Zm-3.77,2.94a3.63,3.63,0,0,0-2.76,1.18,4.7,4.7,0,0,0,0,6.06,3.63,3.63,0,0,0,2.76,1.2,3.7,3.7,0,0,0,2.8-1.18,4.3,4.3,0,0,0,1.11-3.08,4.18,4.18,0,0,0-1.11-3A3.74,3.74,0,0,0,172.38,113.18Z"/><path class="cls-1" d="M182.83,110.24h3.59v1.47a8.62,8.62,0,0,1,2.21-1.43,5.35,5.35,0,0,1,2-.4,4.91,4.91,0,0,1,3.61,1.48,5.1,5.1,0,0,1,1.25,3.73v9.45H192v-6.26a15.76,15.76,0,0,0-.23-3.4,2.33,2.33,0,0,0-.8-1.28,2.24,2.24,0,0,0-1.41-.44,2.64,2.64,0,0,0-1.87.73,3.9,3.9,0,0,0-1.08,2,16.24,16.24,0,0,0-.16,2.9v5.73h-3.59Z"/><path class="cls-1" d="M212.42,113.13l-3,1.64a5.06,5.06,0,0,0-1.66-1.22,5,5,0,0,0-1.93-.34,4.49,4.49,0,0,0-3.26,1.2,4.09,4.09,0,0,0-1.24,3.08,4,4,0,0,0,1.2,3,4.34,4.34,0,0,0,3.14,1.15,4.57,4.57,0,0,0,3.75-1.64l2.83,1.94a8.71,8.71,0,0,1-12.39.76,7.43,7.43,0,0,1,1.8-11.8,8.65,8.65,0,0,1,4.16-1,8.43,8.43,0,0,1,3.82.85A7.24,7.24,0,0,1,212.42,113.13Z"/><path class="cls-1" d="M221.83,109.87a7.58,7.58,0,0,1,3.8,1,7.32,7.32,0,0,1,2.78,2.75,7.39,7.39,0,0,1,1,3.74,7.5,7.5,0,0,1-1,3.78,7.24,7.24,0,0,1-2.74,2.75,7.56,7.56,0,0,1-3.82,1,7.13,7.13,0,0,1-5.25-2.19,7.58,7.58,0,0,1,.28-10.9A7.17,7.17,0,0,1,221.83,109.87Zm.06,3.38a3.69,3.69,0,0,0-2.78,1.16,4.14,4.14,0,0,0-1.11,3,4.2,4.2,0,0,0,1.1,3,3.67,3.67,0,0,0,2.78,1.16,3.72,3.72,0,0,0,2.8-1.17,4.61,4.61,0,0,0,0-6A3.72,3.72,0,0,0,221.89,113.24Z"/><path class="cls-1" d="M239.05,105.2h3.69v12.5A6.47,6.47,0,0,0,243,120a2.28,2.28,0,0,0,.93,1.07,2.94,2.94,0,0,0,1.57.4,3.06,3.06,0,0,0,1.68-.45,2.35,2.35,0,0,0,1-1.14,8.4,8.4,0,0,0,.27-2.63v-12h3.69v11.52a16.79,16.79,0,0,1-.33,4,5.74,5.74,0,0,1-1.25,2.18,5.84,5.84,0,0,1-2.13,1.56,7.25,7.25,0,0,1-2.81.51,6.81,6.81,0,0,1-3.66-1,5.62,5.62,0,0,1-2.23-2.42,12.76,12.76,0,0,1-.67-4.91Z"/><path class="cls-1" d="M255.48,110.24h3.59v1.47a8.62,8.62,0,0,1,2.21-1.43,5.35,5.35,0,0,1,2-.4,4.91,4.91,0,0,1,3.61,1.48,5.1,5.1,0,0,1,1.25,3.73v9.45h-3.55v-6.26a15.76,15.76,0,0,0-.23-3.4,2.33,2.33,0,0,0-.8-1.28,2.24,2.24,0,0,0-1.41-.44,2.64,2.64,0,0,0-1.87.73,3.9,3.9,0,0,0-1.08,2,16.24,16.24,0,0,0-.16,2.9v5.73h-3.59Z"/><path class="cls-1" d="M272.48,104.35a2.19,2.19,0,0,1,1.62.68,2.27,2.27,0,0,1,.67,1.65,2.24,2.24,0,0,1-.67,1.64,2.17,2.17,0,0,1-1.6.68,2.19,2.19,0,0,1-1.63-.69,2.3,2.3,0,0,1-.68-1.68,2.28,2.28,0,0,1,2.28-2.29Zm-1.79,5.89h3.59v14.29h-3.59Z"/><path class="cls-1" d="M275.46,110.24h3.66l3.61,8.43,3.6-8.43H290l-6.08,14.29h-2.32Z"/><path class="cls-1" d="M305.85,118.42H294.32a3.84,3.84,0,0,0,1.33,2.42,4.18,4.18,0,0,0,2.77.9,4.78,4.78,0,0,0,3.46-1.41l3,1.42a7.12,7.12,0,0,1-2.71,2.37,8.46,8.46,0,0,1-3.74.77,7.4,7.4,0,0,1-5.48-2.12,7.21,7.21,0,0,1-2.12-5.31A7.46,7.46,0,0,1,293,112a7.08,7.08,0,0,1,5.29-2.16,7.34,7.34,0,0,1,5.49,2.16,7.81,7.81,0,0,1,2.12,5.71Zm-3.59-2.82a3.6,3.6,0,0,0-1.4-1.94,4.06,4.06,0,0,0-2.43-.75,4.29,4.29,0,0,0-2.63.84,4.69,4.69,0,0,0-1.32,1.85Z"/><path class="cls-1" d="M307.37,110.24h3.07V112a3.83,3.83,0,0,1,1.33-1.62,3.2,3.2,0,0,1,1.81-.55,3.37,3.37,0,0,1,1.46.37l-1.12,3.09a2.48,2.48,0,0,0-1-.31,1.64,1.64,0,0,0-1.4,1,9.38,9.38,0,0,0-.57,4v6.48h-3.56Z"/><path class="cls-1" d="M325,112.23l-2.22,2.22a3.75,3.75,0,0,0-2.46-1.34,1.55,1.55,0,0,0-.95.26.77.77,0,0,0-.34.64.79.79,0,0,0,.22.53,4,4,0,0,0,1.07.66l1.31.66a7.78,7.78,0,0,1,2.85,2.09,4.35,4.35,0,0,1-.63,5.68,5.36,5.36,0,0,1-3.75,1.27,6,6,0,0,1-5-2.44l2.21-2.4a5.11,5.11,0,0,0,1.48,1.19,3.28,3.28,0,0,0,1.51.45,1.79,1.79,0,0,0,1.14-.34,1,1,0,0,0,.43-.79q0-.83-1.56-1.62l-1.21-.6q-3.47-1.75-3.47-4.37a3.8,3.8,0,0,1,1.31-2.9,4.75,4.75,0,0,1,3.34-1.2,5.8,5.8,0,0,1,4.7,2.36Z"/><path class="cls-1" d="M338.13,110.24h3.59v14.29h-3.59V123a7,7,0,0,1-2.11,1.44,5.9,5.9,0,0,1-2.29.44,6.36,6.36,0,0,1-4.79-2.15,7.49,7.49,0,0,1-2-5.34,7.68,7.68,0,0,1,2-5.43,6.23,6.23,0,0,1,4.75-2.12,6,6,0,0,1,2.41.49,6.59,6.59,0,0,1,2.09,1.46Zm-3.77,2.94a3.63,3.63,0,0,0-2.76,1.18,4.7,4.7,0,0,0,0,6.06,3.63,3.63,0,0,0,2.76,1.2,3.7,3.7,0,0,0,2.8-1.18,4.3,4.3,0,0,0,1.11-3.08,4.18,4.18,0,0,0-1.11-3A3.74,3.74,0,0,0,334.36,113.18Z"/><path class="cls-1" d="M344.41,104.72H348v19.81h-3.59Z"/><path class="cls-2" d="M30.23,16.75A30,30,0,0,1,43.31,20a30.7,30.7,0,0,1,11.25,9.19,18.4,18.4,0,0,1,3.59,7.89,13.07,13.07,0,0,1-2.76,10.68c-2.46,3.14-5,6.22-7.27,9.5a86.88,86.88,0,0,0-9,16,51.3,51.3,0,0,0-4,14.81,30.26,30.26,0,0,0,2.31,15.87A27.38,27.38,0,0,0,46.79,115c.76.54,1.56,1,2.35,1.53.23.14.28.24.12.48-.32.5-.61,1-.9,1.55-.12.22-.22.28-.48.13a93.56,93.56,0,0,1-15.13-10.84A90.19,90.19,0,0,1,22.44,97.18,78.44,78.44,0,0,1,9.31,74.49,59.53,59.53,0,0,1,5.49,53.75,48,48,0,0,1,10.6,31.59a37,37,0,0,1,8.53-11.06A15.41,15.41,0,0,1,27.07,17,23.75,23.75,0,0,1,30.23,16.75Z"/><path class="cls-2" d="M89.66,123.05a68.25,68.25,0,0,1-9.61-.64,70.35,70.35,0,0,1-15.23-3.91A64.23,64.23,0,0,1,51.77,112,23.34,23.34,0,0,1,42,99.2a19.31,19.31,0,0,1,1.41-15.48,17,17,0,0,1,11.38-8.55A21.15,21.15,0,0,1,67.68,76.4a41.55,41.55,0,0,1,8.72,5.07c5.16,3.63,10.4,7.13,15.87,10.27a93.92,93.92,0,0,0,14.07,6.8,40.2,40.2,0,0,0,8.28,2.22,17.58,17.58,0,0,0,7.21-.26,10.61,10.61,0,0,0,7.29-6.83c.14-.35.35-.87.43-1.06a0,0,0,0,1,0,0c.23.12,1.13.8,1.26.9a0,0,0,0,1,0,0c0,.06-.06.25-.1.38A41,41,0,0,1,122,109.57a38.9,38.9,0,0,1-13.08,9.48,44.49,44.49,0,0,1-11.83,3.42A47.28,47.28,0,0,1,89.66,123.05Z"/><path class="cls-2" d="M48.6,4,49.94,4c1.51.12,3,.22,4.54.41A74.46,74.46,0,0,1,69.73,8,87.58,87.58,0,0,1,91,18.68a54.19,54.19,0,0,1,7.83,6.22,21.92,21.92,0,0,1,5.56,8.72,12.15,12.15,0,0,1,.38,7.23,7.52,7.52,0,0,1-6.42,5.62,14.08,14.08,0,0,1-7.71-1.11,34.81,34.81,0,0,1-8.8-5.46c-4.69-3.74-9.5-7.34-14.47-10.71A129.43,129.43,0,0,0,46.07,17.05a54.22,54.22,0,0,0-13.14-4,25.34,25.34,0,0,0-11,.44,17.44,17.44,0,0,0-6.27,3.26l-.25.23a0,0,0,0,1-.06,0l-2-1.45a0,0,0,0,1,0-.06A45.58,45.58,0,0,1,21.36,10,51.42,51.42,0,0,1,39.41,4.39c1.26-.16,2.53-.24,3.8-.35L44.71,4H48.6Z"/><path class="cls-2" d="M128.62,75.66a43.83,43.83,0,0,1-1.81,13.68,10.34,10.34,0,0,1-4,5.8,9.48,9.48,0,0,1-6.44,1.57c-4.85-.46-8.72-2.85-12-6.31a22.28,22.28,0,0,1-5.6-9.86A16.79,16.79,0,0,1,100.31,68a86,86,0,0,0,5.33-11.91,46.33,46.33,0,0,0,2.62-11.52,27.59,27.59,0,0,0-.65-9,26.49,26.49,0,0,0-9-13.85l-.56-.5a0,0,0,0,1,0,0l.62-.71a0,0,0,0,1,0,0l.25.21c1.73,1.43,3.42,2.91,5,4.46a91,91,0,0,1,10.65,12.07,78.49,78.49,0,0,1,9,15.77,67.06,67.06,0,0,1,4.1,13.74A52,52,0,0,1,128.62,75.66Z"/></svg>