<?xml version="1.0" encoding="UTF-8"?>
<svg width="200px" height="40px" viewBox="0 0 200 40" version="1.1" xmlns="http://www.w3.org/2000/svg" xmlns:xlink="http://www.w3.org/1999/xlink">
    <!-- Generator: Sketch 50.2 (55047) - http://www.bohemiancoding.com/sketch -->
    <title>Logo</title>
    <desc>Created with Sketch.</desc>
    <defs>
        <polygon id="path-1" points="135.094065 23.1523033 135.094065 0.286445537 0.324830683 0.286445537 0.324830683 23.1523033"></polygon>
    </defs>
    <g id="Symbols" stroke="none" stroke-width="1" fill="none" fill-rule="evenodd">
        <g id="D-Header-Carrito" transform="translate(-80.000000, -20.000000)">
            <g id="D-Header-main">
                <g id="Movistar-Lockup-Logo">
                    <g id="Logo" transform="translate(80.000000, 20.000000)">
                        <g id="movistar" transform="translate(64.215750, 8.308147)">
                            <mask id="mask-2" fill="white">
                                <use xlink:href="#path-1"></use>
                            </mask>
                            <g id="Clip-2"></g>
                            <path d="M74.4399078,4.02755413 L71.2233481,4.02755413 C70.9549407,4.02755413 70.8272307,4.13145377 70.8272307,4.39408897 L70.8308383,22.4423224 C70.8308383,22.7035146 70.9578268,22.8088573 71.2262342,22.8088573 L74.4413508,22.8088573 C74.7104798,22.8088573 74.8389113,22.7035146 74.8389113,22.4423224 L74.8353036,4.39408897 C74.8353036,4.13145377 74.7090367,4.02755413 74.4399078,4.02755413 Z M44.6142171,16.1484574 C44.3032397,19.1940156 42.7663909,19.6709438 40.2973314,19.6709438 L40.1941533,19.6709438 C37.7258153,19.6709438 36.1875234,19.1940156 35.8808751,16.1484574 C35.7834692,15.2285126 35.707709,14.468025 35.707709,13.4088259 C35.707709,12.3474622 35.7834692,11.587696 35.8808751,10.6677513 C36.1875234,7.62219309 37.7258153,7.14598641 40.1941533,7.14598641 L40.2973314,7.14598641 C42.7663909,7.14598641 44.3032397,7.62219309 44.6142171,10.6677513 C44.7109015,11.587696 44.7859402,12.3474622 44.7859402,13.4088259 C44.7859402,14.468025 44.7109015,15.2285126 44.6142171,16.1484574 Z M48.2283373,18.5893774 C48.6150748,17.3115561 48.8308109,15.8418091 48.8308109,13.4088259 C48.8308109,10.9765641 48.6150748,9.50176645 48.2283373,8.22683128 C47.2513921,4.96409395 44.6748253,3.66679149 40.4964724,3.66679149 L39.9978984,3.66679149 C35.8195455,3.66679149 33.2429787,4.96409395 32.2609828,8.22683128 C31.8778528,9.50176645 31.6613953,10.9765641 31.6613953,13.4088259 C31.6613953,15.8418091 31.8778528,17.3115561 32.2609828,18.5893774 C33.2429787,21.8513932 35.8195455,23.1523033 39.9978984,23.1523033 L40.4964724,23.1523033 C44.6748253,23.1523033 47.2513921,21.8513932 48.2283373,18.5893774 Z M20.8875797,3.66679149 L19.9164067,3.66679149 C17.1226608,3.66679149 15.2676193,4.40924101 14.3685988,5.51028859 L14.346953,5.51028859 C13.4479325,4.40924101 11.477447,3.66679149 8.68297956,3.66679149 L7.6851101,3.66679149 C4.53565224,3.66679149 1.95403477,4.76206687 0.91720294,7.00673203 C0.47057879,7.9735759 0.324830683,9.27015684 0.324830683,10.6706374 L0.324830683,22.3788282 C0.324830683,22.6364127 0.474907941,22.8088573 0.73826467,22.8088573 L3.91008981,22.8088573 C4.17128197,22.8088573 4.32135923,22.6364127 4.32135923,22.3788282 L4.32785295,12.6266925 C4.32785295,11.2312626 4.36104312,10.216798 4.43175259,9.59195712 C4.61429849,7.95553777 5.82862554,7.16113844 8.14400018,7.16113844 L8.40879996,7.16113844 C10.7227315,7.16113844 11.9947806,7.95553777 12.1758835,9.59195712 C12.2465929,10.216798 12.2805046,11.2312626 12.2805046,12.6266925 L12.2805046,22.3824358 C12.2805046,22.6400203 12.4377971,22.8088573 12.6997108,22.8088573 L15.8794727,22.8088573 C16.1406649,22.8088573 16.2892991,22.6061086 16.2892991,22.3485241 L16.2936283,12.6266925 C16.2936283,11.2312626 16.3268184,10.216798 16.3975279,9.59195712 C16.5793523,7.95553777 17.8485152,7.16113844 20.1646114,7.16113844 L20.4301327,7.16113844 C22.7455073,7.16113844 23.9576698,7.95553777 24.1409372,9.59195712 C24.2094821,10.216798 24.2419508,11.2312626 24.2419508,12.6266925 L24.2419508,22.3824358 C24.2419508,22.6486786 24.3970787,22.8088573 24.6589924,22.8088573 L27.8387543,22.8088573 C28.0999465,22.8088573 28.2478591,22.6061086 28.2478591,22.3485241 L28.2478591,10.6706374 C28.2478591,9.27015684 28.0992249,7.9735759 27.6540438,7.00673203 C26.6193766,4.76206687 24.034873,3.66679149 20.8875797,3.66679149 Z M103.207842,22.8088573 C103.482743,22.8088573 103.633542,22.660223 103.633542,22.4177905 L103.633542,19.7387672 C103.633542,19.4977777 103.482743,19.3477005 103.207842,19.3477005 L102.781421,19.3477005 C101.504321,19.3477005 100.719302,19.0396092 100.240209,18.5345415 C99.6045451,17.8656875 99.4732275,16.779792 99.4732275,15.4933124 L99.4732275,7.35450721 L103.012309,7.35450721 C103.279273,7.35450721 103.412034,7.2513291 103.412034,6.98941542 L103.412034,4.3890383 C103.412034,4.12784615 103.279273,4.02538956 103.012309,4.02538956 L99.4732275,4.02538956 L99.4732275,0.653701907 C99.4732275,0.391788229 99.3404668,0.286445537 99.0727809,0.286445537 L95.8562212,0.286445537 C95.5878138,0.286445537 95.4651545,0.391788229 95.4651545,0.653701907 L95.4651545,15.711213 C95.4651545,18.3317929 95.9853743,20.0042885 97.1376501,21.1486276 C98.2192165,22.2215357 99.9083072,22.8088573 102.355721,22.8088573 L103.207842,22.8088573 Z M83.4099101,14.3850496 C84.2771835,14.7068498 84.9979872,14.9716496 85.8573239,15.2768548 C87.6972133,15.9312783 88.4843974,16.4493334 88.4843974,17.5741913 C88.4843974,19.0295078 87.2578044,19.8022614 84.4828182,19.8022614 L84.3825262,19.8022614 C82.8168163,19.8022614 81.0223829,19.4941701 79.4458502,18.9898239 C79.1204423,18.8852028 78.941504,19.0085836 78.941504,19.3368776 L78.941504,21.7359492 C78.941504,22.0368252 78.9927323,22.2200926 79.3304061,22.3369797 C80.8355079,22.8557564 82.9120577,23.1472526 84.6069205,23.1472526 L84.7360736,23.1472526 C89.6655343,23.1472526 92.338064,20.9559803 92.338064,17.408962 L92.3387855,17.3570122 C92.3387855,15.9890003 91.8885537,14.7508629 91.0494198,13.9261595 C90.2276025,13.1180512 88.9786422,12.4910457 87.0507267,11.7738496 C86.0218316,11.3914412 85.2231031,11.0970589 84.5116792,10.8358667 C82.90845,10.2507097 82.4589398,9.70090743 82.4589398,8.87692556 C82.4589398,7.51468582 83.7937615,6.98220017 85.9424638,6.98220017 L86.1062501,6.98292169 C87.3458305,6.98292169 88.8473246,7.16113844 90.6684544,7.49159702 C91.0054068,7.55292666 91.1958894,7.47933109 91.1958894,7.13083437 L91.1958894,4.66754706 C91.1958894,4.34286068 91.1085849,4.25267002 90.7737971,4.18051749 C89.5897741,3.92942669 87.4417934,3.66679149 86.2361246,3.66679149 L85.9460715,3.66679149 C83.4308343,3.66679149 81.5642484,4.13361835 80.3210604,5.21807085 C79.3102034,6.09833169 78.6341342,7.42954584 78.6341342,9.02050909 L78.6334127,9.13451009 C78.6334127,10.6085862 79.1449741,11.7976599 80.0216274,12.6072113 C80.8391155,13.3633698 81.9416061,13.8410195 83.4099101,14.3850496 Z M57.5396211,22.8088573 L61.0231451,22.8088573 C61.3232997,22.8088573 61.4553388,22.7114513 61.5787196,22.4805632 C63.8349292,18.2336654 67.2867061,10.9772857 67.5219234,4.39697508 C67.5305817,4.1350614 67.4209098,4.02322498 67.0810714,4.02322498 L63.8349292,4.0239465 C63.4575714,4.0239465 63.3529503,4.14516275 63.332026,4.48211506 C63.1819488,6.87974358 62.6732735,9.66338812 61.9351531,12.1497642 C61.1717793,14.7212804 60.2020494,17.1694156 59.2720033,18.9898239 C58.3419572,17.1694156 57.3707842,14.7212804 56.6088535,12.1497642 C55.8656824,9.64751456 55.3533995,6.84366731 55.2083729,4.43521592 C55.1867271,4.09249141 55.0027382,4.0239465 54.670115,4.0239465 L51.402327,4.0239465 C51.0567164,4.0239465 50.960032,4.18484664 50.9860069,4.53550793 C51.4441755,10.9830579 53.4492942,15.9911649 56.9277676,22.4949938 C57.0497054,22.7237173 57.2344159,22.8088573 57.5396211,22.8088573 Z M134.683661,3.66534844 L132.529187,3.66534844 C129.434565,3.66534844 127.018898,4.73681348 125.983509,6.98147864 C125.536164,7.94904405 125.396909,9.24490345 125.396909,10.643941 L125.396909,22.4423224 C125.396909,22.7035146 125.523898,22.8088573 125.792305,22.8088573 L129.008143,22.8088573 C129.276551,22.8088573 129.396324,22.7035146 129.396324,22.4423224 L129.396324,12.5732996 C129.396324,11.1793127 129.425185,10.1634051 129.496616,9.53712119 C129.679162,7.9021449 130.671981,7.13083437 132.985191,7.13083437 L134.69737,7.13083437 C134.973714,7.13083437 135.094209,6.98941542 135.094209,6.72245106 L135.094209,4.0722887 C135.094209,3.79955214 134.961449,3.66534844 134.683661,3.66534844 Z M117.960148,16.0640389 C117.960148,17.4731778 117.913971,18.3014888 117.403131,18.8888104 C116.860544,19.5114867 115.898751,19.8073121 114.597119,19.8073121 L113.96362,19.8073121 C111.559497,19.8073121 110.161181,18.8419112 110.161181,16.9911989 C110.161181,16.1448497 110.495248,15.3901343 111.012581,14.9435101 C111.62227,14.4189613 112.515518,14.1620983 114.045874,14.1620983 L114.384991,14.1620983 C115.54376,14.1620983 116.865594,14.2782638 117.960148,14.5661524 L117.960148,16.0640389 Z M118.295658,4.43521592 C117.223471,3.97488279 115.59571,3.66679149 113.488135,3.66679149 L113.231272,3.66679149 C111.946957,3.66679149 110.198701,3.82336248 108.514661,4.12784615 C108.23038,4.17835292 108.118543,4.32482255 108.118543,4.6516735 L108.118543,7.05507422 C108.118543,7.35522874 108.273671,7.45912838 108.612788,7.40862161 C110.091194,7.18639182 111.615055,7.03198541 112.78609,7.03198541 L112.952763,7.03198541 C114.611549,7.03198541 115.951422,7.18422725 116.758087,7.72753578 C117.561145,8.26867975 117.960148,9.07390196 117.960148,10.8243223 L117.960148,11.3409344 C116.743657,11.0840714 115.277517,10.9152345 113.933316,10.914513 L113.576161,10.914513 C111.336546,10.914513 109.2333,11.4556569 107.891984,12.7075033 C106.861646,13.670018 106.183413,15.1195623 106.183413,16.9695531 L106.183413,17.1282887 C106.183413,20.8520807 108.754929,23.1479741 113.978772,23.1479741 L114.908818,23.1479741 C116.962279,23.1479741 118.913283,22.5368422 120.087926,21.5663907 C121.4379,20.4501911 121.962449,18.7978982 121.962449,16.1556726 L121.962449,10.7745371 C121.962449,7.09692269 120.525892,5.39556607 118.295658,4.43521592 Z" id="Fill-1" fill="#ffffff" mask="url(#mask-2)"></path>
                        </g>
                        <g id="Nuestra-M" transform="translate(0.000000, 0.371369)" fill="#ffffff">
                            <path d="M9.83525544,4.82267499 C7.41093049,4.86091583 2.93675221,6.05648323 0.89267108,14.4030877 C0.00230888091,18.0402967 -0.341858679,21.8311905 0.42007202,26.3436096 C1.12283765,30.5053674 2.36819028,34.0978418 3.20732419,36.0769857 C3.49665583,36.7595486 3.94472303,37.4709725 4.29105516,37.9082169 C5.28676006,39.1672785 6.94482516,39.0871892 7.64109705,38.7437431 C8.40086318,38.369993 9.27390877,37.4673649 8.9578807,35.4066887 C8.80491734,34.4109838 8.36478691,32.9542243 8.11730374,32.1446729 C7.35609457,29.6597398 6.3437946,26.6618023 6.25576851,24.526809 C6.13743836,21.6695688 7.26373933,21.2965403 8.01196105,21.131311 C9.26957962,20.8549668 10.3244496,22.2359662 11.3259267,23.9669053 C12.5214941,26.0326322 14.5706259,29.6936515 16.2416784,32.4888405 C17.7511093,35.0134574 20.5354754,37.7155696 25.0074891,37.5301376 C29.5668074,37.341098 32.9269506,35.6015005 34.6578898,30.1258452 C35.9530276,26.0283031 36.8361746,22.9668713 38.2575794,19.8318439 C39.8911126,16.2263821 42.0708405,14.2970235 43.9056793,14.8857881 C45.609922,15.4334258 46.0349004,17.0987062 46.0558247,19.5468414 C46.0738628,21.7128603 45.8234935,24.1003875 45.6286817,25.8544155 C45.5579722,26.4908008 45.4295407,27.7707866 45.4822121,28.4822106 C45.5846686,29.879805 46.1900284,31.2752349 47.763675,31.4989078 C49.4404998,31.7362896 50.7854229,30.3971387 51.3222377,28.7780359 C51.5336446,28.1387645 51.7147475,27.1625408 51.8121534,26.469155 C52.3049551,22.9697574 52.4333866,20.617585 52.2104353,17.036655 C51.9506862,12.8496438 51.131755,9.03133197 49.7016919,5.7274677 C48.3344015,2.56718696 46.137357,0.541865488 43.3205223,0.362927217 C40.20209,0.16522929 36.6233246,2.2345638 34.7459158,6.24840895 C33.0156982,9.94839061 31.6310912,13.7472212 30.7912358,15.6859597 C29.9398359,17.6521161 28.6879896,18.863557 26.7636816,19.0663056 C24.4107877,19.3137888 22.3833016,17.6059384 20.8984026,15.1700691 C19.6032647,13.0466202 17.0375208,9.00463553 15.6651797,7.64672495 C14.3750925,6.37106825 12.9017379,4.7743328 9.83525544,4.82267499" id="Fill-4"></path>
                        </g>
                    </g>
                </g>
            </g>
        </g>
    </g>
</svg>